<svg xmlns="http://www.w3.org/2000/svg" xmlns:xlink="http://www.w3.org/1999/xlink" width="1920" zoomAndPan="magnify" viewBox="0 0 1440 809.999993" height="1080" preserveAspectRatio="xMidYMid meet" version="1.0"><defs><clipPath id="88f1dfa6c4"><path d="M 0 112.582031 L 1440 112.582031 L 1440 693.082031 L 0 693.082031 Z M 0 112.582031 " clip-rule="nonzero"/></clipPath></defs><g clip-path="url(#88f1dfa6c4)"><rect x="-144" width="1728" fill="#ffffff" y="-80.999999" height="971.999992" fill-opacity="1"/><path stroke-linecap="butt" transform="matrix(0.449143, 0, 0, 0.449143, -72.117492, -20.352912)" fill="none" stroke-linejoin="miter" d="M 0.000677401 0.00300376 L 3500.0008 0.00300376 L 3500.0008 3500.003126 L 0.000677401 3500.003126 Z M 0.000677401 0.00300376 " stroke="#231f20" stroke-width="1" stroke-opacity="1" stroke-miterlimit="10"/></g><path fill="#000000" d="M -8.398438 132.882812 C 5.652344 138.175781 18.726562 145.546875 32.210938 152.042969 C 64.796875 167.738281 97.332031 183.539062 129.863281 199.351562 C 132.269531 200.523438 134.050781 201.027344 136.878906 199.527344 C 150.890625 192.113281 163.691406 198.210938 166.792969 213.582031 C 167.40625 216.617188 169.160156 217.8125 171.640625 218.917969 C 211.742188 236.800781 251.683594 255.042969 291.945312 272.554688 C 324.242188 286.597656 356.929688 299.738281 389.398438 313.390625 C 392.804688 314.824219 395.667969 315.332031 399.402344 313.90625 C 408.132812 310.578125 416.515625 315.066406 418.785156 324.09375 C 419.679688 327.660156 422.359375 328.257812 424.847656 329.160156 C 447.804688 337.484375 470.757812 345.816406 493.800781 353.894531 C 541.46875 370.605469 589.675781 385.566406 638.730469 397.679688 C 649.441406 400.328125 660.238281 402.621094 671.003906 405.042969 C 675.5625 406.070312 679.675781 406.636719 684.207031 403.460938 C 688.417969 400.507812 694.066406 400.90625 697.789062 405.007812 C 700.964844 408.503906 704.523438 409.28125 708.855469 409.882812 C 752.59375 415.984375 796.414062 417.300781 840.328125 412.234375 C 883.1875 407.289062 924.816406 396.773438 965.871094 383.785156 C 1043.886719 359.09375 1117.890625 325.203125 1189.632812 286.132812 C 1197.824219 281.671875 1206.054688 277.289062 1214.910156 273.988281 C 1203.515625 280.527344 1192.210938 287.226562 1180.710938 293.570312 C 1093.996094 341.40625 1003.625 380.292969 907.320312 404.441406 C 847.273438 419.5 786.480469 424.382812 724.867188 416.734375 C 718.8125 415.984375 712.738281 415.375 706.660156 414.851562 C 705.1875 414.722656 703.019531 413.777344 702.378906 415.882812 C 701.789062 417.832031 703.789062 418.59375 705.207031 419.339844 C 711.644531 422.734375 718.035156 426.234375 724.574219 429.421875 C 770 451.570312 816.261719 471.710938 864.5 487.03125 C 867.1875 487.882812 869.867188 489.015625 872.625 489.3125 C 878.117188 489.902344 880.515625 492.722656 880.371094 498.128906 C 880.34375 499.113281 881.011719 500.121094 881.695312 502.078125 C 885.152344 497.660156 884.359375 493.289062 885.160156 489.394531 C 887.160156 479.652344 889.328125 477.304688 899.253906 477.421875 C 924.484375 477.726562 949.453125 475.273438 974.363281 471.574219 C 990.726562 469.144531 1005.070312 461.445312 1019.671875 454.585938 C 1084.75 424.011719 1145.390625 386.058594 1203.15625 343.394531 C 1251.957031 307.355469 1298.289062 268.328125 1343.472656 227.878906 C 1374.121094 200.445312 1403.777344 171.96875 1433.421875 143.476562 C 1434.253906 142.679688 1435.246094 142.050781 1436.160156 141.34375 C 1436.160156 143.695312 1436.160156 146.046875 1436.160156 148.398438 C 1433.839844 148.722656 1432.675781 150.632812 1431.207031 152.085938 C 1387.921875 194.886719 1343.011719 235.910156 1296.703125 275.425781 C 1227.378906 334.578125 1154.238281 388.292969 1074.296875 432.386719 C 1052.359375 444.488281 1029.78125 455.339844 1006.703125 466.628906 C 1011.617188 468.074219 1015.605469 466.324219 1019.621094 465.765625 C 1094.796875 455.304688 1164.710938 429.472656 1230.59375 392.421875 C 1291.019531 358.441406 1345.871094 316.597656 1398.550781 271.742188 C 1411.019531 261.121094 1422.453125 249.246094 1436.160156 240.09375 C 1436.160156 241.503906 1436.160156 242.917969 1436.160156 244.328125 C 1429.292969 247.667969 1424.667969 253.734375 1419.121094 258.628906 C 1362.808594 308.316406 1304.195312 354.921875 1238.839844 392.351562 C 1177.085938 427.71875 1111.941406 454.6875 1041.464844 466.675781 C 1003.0625 473.210938 964.34375 478.0625 925.46875 481.265625 C 923.464844 481.429688 921.464844 481.679688 919.410156 482.4375 C 929.976562 486.289062 941.097656 487.421875 951.980469 489.464844 C 961.660156 491.285156 971.488281 492.5 981.308594 493.335938 C 1028.222656 497.316406 1074.875 494.890625 1121.132812 486.265625 C 1148.191406 481.21875 1175.113281 475.382812 1201.253906 466.542969 C 1238.214844 454.042969 1274.09375 438.953125 1308.378906 420.277344 C 1317.945312 415.070312 1327.164062 408.378906 1336.59375 403.816406 C 1358.085938 393.421875 1376.898438 379.316406 1396.726562 366.621094 C 1403.941406 362 1410.730469 356.722656 1418.105469 352.285156 C 1407.695312 362.324219 1395.722656 370.304688 1383.882812 378.429688 C 1372.652344 386.136719 1361.5 394 1349.46875 400.410156 C 1343.082031 403.8125 1338.527344 407.820312 1340.132812 416.191406 C 1338.9375 413.769531 1339.300781 410.472656 1336.449219 409.722656 C 1333.742188 409.011719 1331.605469 411.152344 1329.386719 412.371094 C 1299.5 428.765625 1269.074219 444.03125 1237.394531 456.699219 C 1233.90625 458.09375 1230.472656 459.847656 1226.839844 460.609375 C 1219.570312 462.140625 1214.378906 465.058594 1216.074219 474.617188 C 1212.699219 468.695312 1209.597656 466.734375 1203.34375 468.796875 C 1184.191406 475.113281 1165.097656 482.082031 1144.933594 484.386719 C 1137.9375 485.1875 1143.011719 492.644531 1138.15625 493.792969 C 1139.597656 498.898438 1137.160156 505.398438 1143.054688 508.855469 C 1145.21875 510.125 1145.011719 511.839844 1145.222656 513.5625 C 1145.652344 517.019531 1145.167969 520.582031 1146.957031 523.769531 C 1144.230469 524.695312 1144.230469 520.859375 1141.929688 521.757812 C 1141.007812 523.65625 1141.046875 525.546875 1142.867188 526.773438 C 1149.089844 530.972656 1147.152344 534.992188 1142.84375 539.140625 C 1141.496094 540.4375 1140.527344 542.171875 1139.085938 543.328125 C 1137.539062 544.5625 1137.394531 549.613281 1133.777344 545.882812 C 1131.765625 543.804688 1128.121094 541.179688 1133.773438 538.554688 C 1135.652344 537.683594 1137.351562 535.21875 1134.609375 533.570312 C 1127.078125 529.046875 1129.453125 521.191406 1129.234375 515.078125 C 1129.097656 511.332031 1128.640625 505.609375 1132.695312 502.007812 C 1135.925781 502.726562 1133.734375 506.855469 1136.691406 508.082031 C 1137.742188 501.222656 1135.527344 495.121094 1133.507812 489 C 1132.808594 486.878906 1131.324219 487.238281 1129.527344 487.640625 C 1087.085938 497.136719 1044.125 500.550781 1000.714844 498.402344 C 996.523438 498.195312 996.988281 499.9375 996.1875 503.566406 C 992.476562 520.445312 1001.664062 536.03125 1000.042969 552.523438 C 999.546875 557.585938 1003.546875 558.964844 1006.945312 560.113281 C 1011.636719 561.703125 1012.875 564.074219 1010.742188 568.523438 C 1010.054688 569.957031 1010.105469 571.730469 1009.664062 573.300781 C 1009.121094 575.21875 1011.128906 578.664062 1007.042969 578.542969 C 1003.332031 578.433594 1002.5625 575.769531 1002.851562 572.570312 C 1002.910156 571.898438 1002.792969 571.210938 1002.738281 570.097656 C 999.125 577.339844 999.890625 583.875 1004.988281 590.285156 C 995.210938 590.492188 993.433594 582.605469 989.382812 577.597656 C 988.644531 576.691406 988.929688 572.335938 991.988281 573.054688 C 995.941406 573.984375 994.273438 571.21875 994.777344 569.941406 C 995.628906 567.773438 994.226562 566.761719 992.414062 566.679688 C 985.203125 566.347656 980.664062 563.15625 979.359375 555.699219 C 978.339844 549.871094 974.152344 544.300781 978.242188 538.164062 C 979.339844 536.515625 978.679688 535.074219 977.839844 533.578125 C 976.136719 530.535156 977.371094 528.132812 979.808594 526.265625 C 981.996094 524.59375 984.78125 524.027344 987.089844 525.386719 C 990.074219 527.140625 989.382812 530.085938 988.40625 532.921875 C 987.746094 534.828125 987.042969 536.921875 990.375 539.660156 C 988.621094 527.382812 990.230469 516.492188 988.40625 504.917969 C 986.710938 494.175781 981.335938 497.527344 976.871094 497.152344 C 951.53125 495.019531 926.71875 490.082031 902.054688 484.148438 C 894.152344 482.246094 891.503906 483.574219 889.96875 491.351562 C 886.921875 506.761719 880.820312 521.796875 882.78125 537.914062 C 884.59375 552.789062 884.007812 567.730469 884.738281 582.628906 C 885.191406 591.910156 891.277344 599.628906 892.3125 608.785156 C 892.441406 609.914062 892.714844 611.03125 892.980469 612.484375 C 890.050781 612.578125 889.246094 610.628906 888.390625 608.671875 C 887.976562 609.171875 887.589844 609.421875 887.53125 609.734375 C 886.960938 612.878906 888.804688 614.113281 891.359375 615.511719 C 908.164062 624.695312 908.121094 624.769531 900.109375 641.597656 C 896.085938 650.039062 896.085938 650.039062 904.371094 660.1875 C 895.808594 659.800781 888.957031 656.226562 881.226562 653.742188 C 887.273438 648.042969 887.832031 640.679688 891.320312 634.8125 C 892.722656 632.460938 890.925781 631.464844 888.742188 631.203125 C 886.175781 630.898438 883.601562 630.667969 881.042969 630.316406 C 876.867188 629.742188 873.585938 629.472656 873.996094 623.0625 C 874.257812 619.019531 870.121094 614.757812 868.175781 610.492188 C 865.796875 605.269531 863.808594 599.996094 868.25 594.6875 C 869.757812 592.886719 869.367188 590.679688 868.390625 588.6875 C 866.484375 584.8125 865.316406 580.953125 870.058594 578.351562 C 875.15625 575.550781 878.917969 577.339844 881.449219 584.222656 C 882.039062 572.808594 877.316406 563.25 879.058594 554.121094 C 881.550781 541.066406 878.832031 528.4375 879.125 515.636719 C 879.292969 508.34375 873.558594 502.90625 873.371094 495.722656 C 873.324219 493.820312 870.8125 494.035156 869.296875 493.609375 C 814.792969 478.246094 763.359375 455.335938 712.894531 430.03125 C 710.378906 428.765625 707.871094 427.484375 705.34375 426.246094 C 698.070312 422.683594 696.230469 424.132812 695.203125 432.203125 C 693.007812 449.414062 694.167969 466.65625 693.835938 483.886719 C 693.761719 487.792969 693.371094 490.765625 699.292969 488.984375 C 703.636719 487.679688 708.664062 489.128906 710.890625 493.617188 C 713.257812 498.40625 715.007812 503.933594 710.949219 508.796875 C 708.015625 512.3125 709.09375 514.140625 712.699219 515.628906 C 717.570312 517.644531 719.015625 521.570312 718.78125 526.445312 C 718.363281 535.132812 717.625 543.730469 714.355469 551.960938 C 712.050781 557.765625 711.121094 563.488281 715.03125 569.390625 C 718.136719 574.078125 718.960938 579.648438 717.398438 585.46875 C 716.375 581.316406 715.4375 577.140625 714.289062 573.023438 C 713.800781 571.273438 713.289062 569.109375 711.082031 568.835938 C 709.054688 568.585938 708.527344 570.582031 707.820312 572 C 704.882812 577.855469 700.019531 580.316406 693.875 578.644531 C 687.277344 576.851562 680.722656 578.445312 673.605469 577.753906 C 677.136719 585.390625 678.820312 593.300781 679.890625 601.316406 C 680.40625 605.171875 682.933594 607.464844 685.203125 610.140625 C 690.476562 616.351562 690.183594 619.027344 683.910156 623.941406 C 677.09375 629.277344 669.625 633.417969 661.363281 636.6875 C 660.878906 633.296875 664.207031 632.4375 664.132812 629.574219 C 661.429688 630.371094 658.828125 631.183594 656.203125 631.890625 C 654.84375 632.253906 653.253906 632.621094 652.351562 631.191406 C 651.480469 629.808594 652.046875 628.429688 653.390625 627.570312 C 658.738281 624.136719 659.148438 617.453125 663.023438 613.050781 C 665.234375 610.53125 663.574219 608.15625 662.421875 605.90625 C 657.816406 596.917969 652.824219 588.113281 648.550781 578.96875 C 642.40625 565.816406 644.472656 560.730469 658.46875 557.859375 C 667.242188 556.058594 670.484375 551.40625 671.558594 543.367188 C 674.34375 522.472656 679.261719 501.820312 678.441406 480.527344 C 678.347656 478.171875 678.378906 474.820312 680.757812 474.355469 C 686.875 473.15625 685.003906 468.871094 685.285156 465.152344 C 686.085938 454.675781 685.410156 444.171875 686.136719 433.648438 C 686.578125 427.222656 681.109375 420.796875 679.339844 413.90625 C 678.757812 411.648438 674.511719 411.453125 671.765625 410.929688 C 611.882812 399.507812 553.960938 381.132812 496.453125 361.34375 C 471.8125 352.867188 447.339844 343.902344 422.78125 335.1875 C 416.390625 332.917969 415.539062 333.601562 415.910156 340.386719 C 415.960938 341.3125 416.296875 342.816406 415.878906 343.082031 C 408.113281 348.054688 413 354.730469 413.546875 360.6875 C 414.128906 366.996094 415.285156 373.25 416.183594 379.527344 C 416.25 379.992188 416.105469 380.535156 416.292969 380.925781 C 426.648438 402.296875 425.382812 426.792969 434.464844 448.550781 C 436.375 453.125 438.6875 455.597656 443.632812 456.867188 C 466.648438 462.769531 468.765625 466.175781 455.574219 485.789062 C 445.929688 500.128906 445.53125 512.347656 455.257812 525.808594 C 456.285156 527.234375 457.53125 529.035156 455.839844 530.921875 C 454.140625 532.816406 452.46875 531.523438 450.730469 530.890625 C 444.722656 528.714844 439.917969 524.609375 434.492188 520.078125 C 434 525.695312 436.601562 529.492188 437.816406 533.617188 C 438.289062 535.226562 439.214844 536.832031 437.484375 538.050781 C 435.90625 539.160156 434.9375 537.464844 433.984375 536.691406 C 426.984375 531.019531 421.167969 524.257812 416.492188 516.582031 C 414.53125 513.363281 413.917969 510.613281 419.359375 509.75 C 423.851562 509.039062 424.511719 501.546875 430.496094 502.539062 C 430.507812 501.914062 430.578125 501.285156 430.519531 500.667969 C 429.824219 493.394531 433.332031 487.65625 437.320312 482.109375 C 438.304688 480.742188 441.328125 480.246094 439.789062 477.859375 C 438.292969 475.539062 435.542969 474.808594 432.902344 475.40625 C 418.261719 478.714844 403.992188 481.117188 396.457031 461.964844 C 389.234375 474.003906 394.808594 485.621094 392.765625 496.617188 C 391.925781 486.695312 390.898438 476.785156 390.332031 466.847656 C 390.074219 462.320312 396.589844 459.949219 394.796875 454.148438 C 394.488281 453.144531 394.6875 450.734375 393.894531 449.109375 C 388.742188 438.5625 382.882812 428.308594 380.195312 416.734375 C 378.210938 408.1875 380.265625 403.292969 388.007812 398.753906 C 390.707031 397.167969 389.625 395.808594 388.300781 394.519531 C 382.664062 389.035156 384.410156 382.550781 387.179688 377.125 C 390.050781 371.488281 396.222656 372.300781 401.703125 373.339844 C 401.929688 373.378906 402.128906 373.550781 402.351562 373.605469 C 410.648438 375.648438 411.359375 375.4375 408.894531 367.074219 C 407.03125 360.753906 409.699219 353.480469 404.222656 346.964844 C 402.945312 352.058594 403.996094 356.027344 405.273438 359.894531 C 405.699219 361.1875 407.066406 362.324219 405.449219 363.472656 C 404.832031 363.910156 403.628906 363.90625 402.84375 363.652344 C 401.007812 363.058594 400.234375 361.578125 400.894531 359.757812 C 401.953125 356.824219 403.511719 352.675781 401.894531 350.972656 C 397.027344 345.835938 401.363281 337.820312 395.539062 333.285156 C 394.648438 332.59375 394.257812 330.644531 394.394531 329.355469 C 395.148438 322.128906 390.527344 320.257812 384.828125 318.070312 C 329.996094 297.03125 276.257812 273.371094 222.699219 249.304688 C 204.925781 241.316406 187.292969 233.019531 169.589844 224.871094 C 165.863281 223.15625 162.589844 222.210938 163.542969 228.46875 C 163.761719 229.890625 163.617188 231.480469 162.0625 232.101562 C 156.296875 234.40625 157.621094 239.195312 158.140625 243.503906 C 160.246094 260.988281 162.480469 278.460938 164.738281 295.929688 C 165.53125 302.070312 166.046875 307.839844 170.539062 313.347656 C 174.148438 317.769531 173.515625 324.96875 172.714844 331.019531 C 172.371094 333.605469 171.839844 336.164062 172.410156 338.660156 C 176.226562 355.363281 179.765625 372.132812 184.851562 388.53125 C 186.167969 392.769531 188.1875 394.394531 192.761719 394.265625 C 204.042969 393.949219 215.324219 394.386719 226.460938 396.574219 C 235.746094 398.402344 238.429688 400.972656 239.980469 410.183594 C 243.265625 429.671875 248.976562 448.5625 253.90625 467.648438 C 254.910156 471.535156 257.289062 473.210938 261.027344 475.148438 C 268.730469 479.140625 276.535156 480.769531 284.949219 480.722656 C 286.035156 480.714844 286.699219 481.199219 287.054688 482.164062 C 287.558594 483.527344 286.675781 484.378906 285.800781 485.136719 C 272.265625 496.890625 255.769531 502.1875 238.847656 506.484375 C 237.382812 506.855469 235.433594 507.152344 234.492188 505.226562 C 233.703125 503.613281 233.875 501.871094 235.121094 500.636719 C 236.773438 499.011719 238.09375 497.007812 236.910156 495.082031 C 235.699219 493.105469 233.476562 494.851562 231.734375 495.125 C 220.601562 496.875 220.59375 496.898438 219.570312 485.519531 C 219.113281 480.421875 218.214844 475.441406 219.898438 470.21875 C 221.085938 466.546875 216.039062 463.734375 216.859375 459.742188 C 218.871094 449.992188 215.261719 440.695312 214.863281 431.167969 C 214.671875 426.582031 213.34375 425.464844 209.066406 426.46875 C 204.503906 427.542969 199.855469 428.425781 195.191406 428.867188 C 190.660156 429.300781 187.523438 430.324219 189.921875 436.773438 C 186.238281 433.371094 183.363281 431.871094 179.128906 430.8125 C 173.53125 429.410156 171.011719 431.816406 167.441406 433.570312 C 157.949219 438.230469 148.125 436.453125 139.734375 428.324219 C 139.058594 427.671875 138.460938 426.929688 137.734375 426.34375 C 135.121094 424.234375 133.433594 418.605469 130.546875 419.976562 C 127.246094 421.550781 125.066406 426.246094 124.1875 430.503906 C 121.832031 441.929688 122.835938 453.433594 123.570312 464.925781 C 123.914062 470.273438 124.203125 475.621094 123.675781 481.007812 C 122.042969 463.855469 117.019531 446.914062 121.8125 427.703125 C 114.492188 440.171875 118.910156 452.613281 115.429688 463.765625 C 116.039062 448.492188 112.621094 432.414062 124.503906 419.34375 C 126.976562 416.625 129.785156 413.652344 127.425781 408.78125 C 126.101562 406.050781 129.722656 403.453125 131.332031 399.84375 C 127.304688 401.03125 124.203125 402.445312 124.289062 396.164062 C 124.335938 392.566406 120.382812 388.90625 118.199219 385.292969 C 112.480469 375.832031 106.8125 366.339844 103.636719 355.640625 C 101.3125 347.792969 100.90625 339.960938 103.765625 332.089844 C 105.171875 328.222656 107.363281 325.355469 111.699219 325.214844 C 116.613281 325.058594 116.855469 322.078125 116.128906 318.484375 C 115.359375 314.691406 113.375 311.292969 110.527344 308.921875 C 100.417969 300.484375 102.957031 282.988281 115.34375 278.25 C 124.1875 274.867188 133.023438 276.082031 141.335938 280.082031 C 147.207031 282.90625 150.226562 293.382812 147.425781 299.257812 C 145.8125 302.640625 146.847656 306.1875 146.742188 309.660156 C 146.480469 318.414062 143.34375 322.988281 136.527344 324.167969 C 136.71875 324.820312 136.695312 325.722656 137.117188 326.03125 C 140.824219 328.769531 143.785156 335.238281 147.804688 334.03125 C 152.019531 332.769531 149.210938 326.121094 150.144531 321.925781 C 151.003906 318.046875 151.027344 314.007812 154.546875 311.167969 C 156.851562 309.308594 156.519531 306.433594 156.210938 303.914062 C 154.460938 289.695312 152.777344 275.464844 150.589844 261.316406 C 149.996094 257.496094 150.496094 251.871094 142.972656 253.09375 C 140.027344 253.574219 140.601562 249.621094 141.363281 247.484375 C 142.496094 244.308594 142.984375 241.113281 142.722656 237.796875 C 142.632812 236.644531 142.582031 234.808594 141.929688 234.492188 C 132.691406 229.988281 137.792969 220.222656 134.214844 213.570312 C 132.25 209.917969 130.5625 206.984375 126.597656 205.140625 C 81.878906 184.34375 37.425781 162.992188 -6.328125 140.210938 C -6.90625 139.90625 -7.703125 140.019531 -8.394531 139.9375 C -8.398438 137.585938 -8.398438 135.234375 -8.398438 132.882812 Z M 688.636719 493.421875 C 689.234375 493.40625 689.835938 493.394531 690.4375 493.382812 C 692.058594 477.054688 691.015625 460.738281 690.996094 444.421875 C 690.210938 444.421875 689.421875 444.421875 688.636719 444.425781 C 688.636719 460.757812 688.636719 477.089844 688.636719 493.421875 Z M 172.863281 360.570312 C 171.5 363.609375 166.585938 365.867188 167.613281 368.09375 C 170.148438 373.585938 171.769531 379.425781 174.476562 384.8125 C 175.15625 386.167969 176.398438 387.136719 177.855469 386.738281 C 180.355469 386.046875 178.988281 384.105469 178.648438 382.757812 C 176.789062 375.34375 174.808594 367.960938 172.863281 360.570312 Z M 672.589844 550.777344 C 676.253906 546.292969 678.929688 541.597656 682.140625 537.152344 C 684.140625 534.378906 684.144531 530.066406 683.289062 526.28125 C 682.96875 524.859375 682.609375 523.527344 680.863281 523.328125 C 679.007812 523.113281 678.378906 524.488281 678.074219 525.839844 C 676.195312 534.140625 674.410156 542.460938 672.589844 550.777344 Z M 432.292969 451.609375 C 429.492188 442.523438 427.078125 434.511719 424.519531 426.542969 C 423.988281 424.886719 423.3125 422.394531 420.742188 423.902344 C 418.910156 424.980469 418.59375 427.289062 419.976562 428.84375 C 423.953125 433.304688 424.179688 439.15625 426.238281 444.320312 C 427.242188 446.847656 427.625 449.894531 432.292969 451.609375 Z M 411.523438 385.945312 C 409.742188 391.746094 412.066406 397.785156 405.886719 400.421875 C 404.386719 401.0625 401.632812 402.367188 402.796875 404.277344 C 404.183594 406.554688 406.976562 408.019531 409.992188 407.808594 C 412.804688 407.609375 413.199219 405.410156 413.042969 403.21875 C 412.664062 397.914062 412.121094 392.621094 411.523438 385.945312 Z M 992.886719 514.503906 C 991.269531 521.230469 991.847656 527.855469 992.40625 534.464844 C 992.53125 535.910156 992.382812 538.195312 994.878906 537.65625 C 996.582031 537.285156 996.328125 535.410156 996.136719 534.15625 C 995.136719 527.59375 993.984375 521.050781 992.886719 514.503906 Z M 146.339844 242.941406 C 147.679688 245.074219 144.527344 249.433594 149.316406 249.960938 C 152.652344 250.328125 152.472656 247.304688 152.398438 244.984375 C 152.300781 241.976562 152.476562 238.214844 148.597656 237.867188 C 145.472656 237.589844 146.984375 240.953125 146.339844 242.941406 Z M 998.410156 550.039062 C 996.550781 547.941406 1000.167969 543.285156 995.210938 542.390625 C 993.414062 542.066406 992.996094 544.421875 993.691406 545.488281 C 995.488281 548.261719 992.054688 553.300781 997 554.230469 C 999.359375 554.675781 998.007812 551.765625 998.410156 550.039062 Z M 684.496094 487.914062 C 683.851562 487.816406 683.207031 487.71875 682.5625 487.617188 C 680.472656 494.332031 681.421875 501.242188 682.886719 508.207031 C 683.421875 501.445312 683.957031 494.679688 684.496094 487.914062 Z M 684.496094 487.914062 " fill-opacity="1" fill-rule="nonzero"/><path fill="#000000" d="M 1340.738281 425.644531 C 1347.171875 437.808594 1349.585938 452.074219 1348.335938 467.289062 C 1344.378906 466.378906 1345.824219 462.5625 1343.636719 461.136719 C 1341.960938 463.175781 1343.960938 466.167969 1341.519531 468.613281 C 1334.238281 462.488281 1339.066406 453.277344 1335.710938 445.890625 C 1333.136719 440.226562 1336.023438 430.75 1340.738281 425.644531 Z M 1340.738281 425.644531 " fill-opacity="1" fill-rule="nonzero"/><path fill="#000000" d="M 1216.847656 509.285156 C 1217.027344 508.085938 1215.742188 508.207031 1215.09375 507.820312 C 1209.175781 504.296875 1208.628906 498.667969 1210.484375 493.152344 C 1211.5 490.140625 1206.660156 484.355469 1214.898438 483.707031 C 1217.417969 483.507812 1217.6875 484.066406 1218.058594 485.28125 C 1219.015625 488.402344 1219.726562 491.617188 1220.300781 494.832031 C 1220.835938 497.816406 1221.871094 500.320312 1225.085938 501.089844 C 1228.179688 501.832031 1229.476562 503.65625 1228.792969 506.730469 C 1228.140625 509.6875 1227.652344 512.828125 1223.367188 512.589844 C 1221.742188 512.5 1219.957031 512.738281 1220.203125 515.199219 C 1220.597656 519.140625 1218.320312 518.835938 1215.792969 517.867188 C 1212.171875 516.476562 1213.484375 514.664062 1215.304688 512.628906 C 1216.046875 511.792969 1216.300781 510.519531 1216.847656 509.285156 Z M 1216.847656 509.285156 " fill-opacity="1" fill-rule="nonzero"/></svg>